<svg xmlns="http://www.w3.org/2000/svg" version="1.1" xmlns:xlink="http://www.w3.org/1999/xlink" width="512" height="512" x="0" y="0" viewBox="0 0 682.667 682.667" style="enable-background:new 0 0 512 512" xml:space="preserve"><g><defs><clipPath id="a" clipPathUnits="userSpaceOnUse"><path d="M0 512h512V0H0Z" fill="#ffffff" opacity="1" data-original="#000000"></path></clipPath></defs><g clip-path="url(#a)" transform="matrix(1.33333 0 0 -1.33333 0 682.667)"><path d="M0 0a9.85 9.85 0 0 1-5.36 1.57c-5.52 0-10-4.48-10-10 0-2.62 1.009-5.01 2.66-6.79a9.955 9.955 0 0 1 7.34-3.21c5.519 0 10 4.48 10 10C4.64-4.88 2.79-1.77 0 0" style="fill-opacity:1;fill-rule:nonzero;stroke:none" transform="translate(201.36 314.43)" fill="#ffffff" data-original="#000000" opacity="1"></path><path d="M0 0v-66" style="stroke-width:20;stroke-linecap:round;stroke-linejoin:round;stroke-miterlimit:4;stroke-dasharray:none;stroke-opacity:1" transform="translate(256 502)" fill="none" stroke="#ffffff" stroke-width="20" stroke-linecap="round" stroke-linejoin="round" stroke-miterlimit="4" stroke-dasharray="none" stroke-opacity="" data-original="#000000" opacity="1"></path><path d="M0 0v-66" style="stroke-width:20;stroke-linecap:round;stroke-linejoin:round;stroke-miterlimit:4;stroke-dasharray:none;stroke-opacity:1" transform="translate(256 76)" fill="none" stroke="#ffffff" stroke-width="20" stroke-linecap="round" stroke-linejoin="round" stroke-miterlimit="4" stroke-dasharray="none" stroke-opacity="" data-original="#000000" opacity="1"></path><path d="m0 0 42.43-42.43" style="stroke-width:20;stroke-linecap:round;stroke-linejoin:round;stroke-miterlimit:4;stroke-dasharray:none;stroke-opacity:1" transform="translate(66.29 425.71)" fill="none" stroke="#ffffff" stroke-width="20" stroke-linecap="round" stroke-linejoin="round" stroke-miterlimit="4" stroke-dasharray="none" stroke-opacity="" data-original="#000000" opacity="1"></path><path d="m0 0 42.43-42.43" style="stroke-width:20;stroke-linecap:round;stroke-linejoin:round;stroke-miterlimit:4;stroke-dasharray:none;stroke-opacity:1" transform="translate(403.28 118.72)" fill="none" stroke="#ffffff" stroke-width="20" stroke-linecap="round" stroke-linejoin="round" stroke-miterlimit="4" stroke-dasharray="none" stroke-opacity="" data-original="#000000" opacity="1"></path><path d="m0 0-42.43-42.43" style="stroke-width:20;stroke-linecap:round;stroke-linejoin:round;stroke-miterlimit:4;stroke-dasharray:none;stroke-opacity:1" transform="translate(445.71 425.71)" fill="none" stroke="#ffffff" stroke-width="20" stroke-linecap="round" stroke-linejoin="round" stroke-miterlimit="4" stroke-dasharray="none" stroke-opacity="" data-original="#000000" opacity="1"></path><path d="m0 0-42.43-42.43" style="stroke-width:20;stroke-linecap:round;stroke-linejoin:round;stroke-miterlimit:4;stroke-dasharray:none;stroke-opacity:1" transform="translate(108.72 118.72)" fill="none" stroke="#ffffff" stroke-width="20" stroke-linecap="round" stroke-linejoin="round" stroke-miterlimit="4" stroke-dasharray="none" stroke-opacity="" data-original="#000000" opacity="1"></path><path d="M0 0s-87.45-130-220-130S-440 0-440 0s87.45 130 220 130S0 0 0 0Z" style="stroke-width:20;stroke-linecap:round;stroke-linejoin:round;stroke-miterlimit:4;stroke-dasharray:none;stroke-opacity:1" transform="translate(476 256)" fill="none" stroke="#ffffff" stroke-width="20" stroke-linecap="round" stroke-linejoin="round" stroke-miterlimit="4" stroke-dasharray="none" stroke-opacity="" data-original="#000000" opacity="1"></path><path d="M0 0c.359.14.72.27 1.08.4.399.15.8.29 1.2.43.36.13.72.25 1.09.37a60.658 60.658 0 0 0 3.31 1.02c.61.18 1.23.35 1.86.51.66.17 1.319.33 1.98.48.62.14 1.23.28 1.85.4.5.11 1 .21 1.51.3.44.08.88.16 1.32.23.239.05.489.09.739.12.451.08.901.14 1.351.2.12.02.23.04.35.05.38.06.77.11 1.16.16.42.05.84.1 1.26.14l.6.06c.43.05.87.09 1.3.12.229.02.46.04.689.05.29.03.591.05.881.06.43.03.869.05 1.3.07.56.03 1.12.05 1.69.06.68.02 1.379.03 2.07.03 44.18 0 80-35.82 80-80 0-13.81-3.5-26.8-9.66-38.13a77.81 77.81 0 0 0-2.951-4.99c-.639-1-1.299-1.98-1.979-2.95-.07-.1-.141-.19-.21-.29a74.414 74.414 0 0 0-4.681-5.95 77.586 77.586 0 0 0-3.92-4.22 75.491 75.491 0 0 0-3.809-3.57 79.582 79.582 0 0 0-18.31-12.1c-1.1-.53-2.211-1.03-3.341-1.51a80.376 80.376 0 0 0-7.349-2.69c-2.51-.78-5.06-1.44-7.67-1.97a80.063 80.063 0 0 0-16.12-1.63c-44.18 0-80 35.82-80 80 0 .69.01 1.38.03 2.06.01.56.029 1.11.06 1.67a69.819 69.819 0 0 0 .11 2c.04.48.069.96.12 1.44l.029.35c.051.57.111 1.14.181 1.7v.02c.069.6.14 1.2.23 1.8.06.45.12.9.2 1.35.08.6.179 1.18.29 1.77.019.16.05.31.08.47" style="stroke-width:20;stroke-linecap:round;stroke-linejoin:round;stroke-miterlimit:4;stroke-dasharray:none;stroke-opacity:1" transform="translate(227.41 330.74)" fill="none" stroke="#ffffff" stroke-width="20" stroke-linecap="round" stroke-linejoin="round" stroke-miterlimit="4" stroke-dasharray="none" stroke-opacity="" data-original="#000000" opacity="1"></path><path d="M0 0c-16.54 0-30 13.46-30 30s13.46 30 30 30 30-13.46 30-30S16.54 0 0 0Z" style="stroke-width:20;stroke-linecap:round;stroke-linejoin:round;stroke-miterlimit:4;stroke-dasharray:none;stroke-opacity:1" transform="translate(256 226)" fill="none" stroke="#ffffff" stroke-width="20" stroke-linecap="round" stroke-linejoin="round" stroke-miterlimit="4" stroke-dasharray="none" stroke-opacity="" data-original="#000000" opacity="1"></path></g></g></svg>