<svg xmlns="http://www.w3.org/2000/svg" version="1.1" xmlns:xlink="http://www.w3.org/1999/xlink" width="512" height="512" x="0" y="0" viewBox="0 0 512 512" style="enable-background:new 0 0 512 512" xml:space="preserve"><g><path d="M505.646 250.767c-5.836-10.111-15.297-17.354-26.64-20.394-11.342-3.039-23.159-1.499-33.268 4.339l-119.73 69.123c-.506-7.048-2.595-13.965-6.224-20.309-6.343-11.088-16.57-19.027-28.799-22.355l-133.618-36.368a7.984 7.984 0 0 0-1.051-.212c-19.886-2.631-38.035 2.214-53.952 14.404l-36.937 28.287-1.892-7.061c-1.859-6.938-8.18-11.782-15.368-11.782a15.85 15.85 0 0 0-4.101.541l-31.79 8.519a15.786 15.786 0 0 0-9.646 7.41 15.794 15.794 0 0 0-1.597 12.06l46.093 172.02c1.859 6.938 8.18 11.782 15.368 11.782 1.383 0 2.762-.183 4.101-.541l31.792-8.52c4.093-1.096 7.519-3.729 9.645-7.412s2.692-7.966 1.596-12.058l-1.95-7.28c19.437-14.756 37.25-18.94 58.906-13.974l76.535 17.546c6.707 1.538 13.158 2.309 19.39 2.309 12.709 0 24.503-3.209 35.692-9.668l191.395-110.498c20.938-12.091 28.138-38.965 16.05-59.908zM62.555 444.748l-46.039-171.82 31.59-8.472 4.943 18.45.006.021 41.092 153.355zm419.041-147.93L290.201 407.316c-13.011 7.511-27.245 9.349-43.507 5.62l-76.534-17.545c-24.436-5.602-45.453-1.585-66.91 13.043l-33.342-124.43 42.185-32.306c12.463-9.546 26.074-13.251 41.605-11.313l133.085 36.224c8.104 2.206 14.893 7.483 19.113 14.861s5.33 15.904 3.124 24.009c-4.585 16.846-22.021 26.823-38.869 22.237l-71.375-19.428a8.002 8.002 0 0 0-9.819 5.618 8 8 0 0 0 5.617 9.82l71.376 19.428a47.561 47.561 0 0 0 12.504 1.678c19.502-.001 37.524-12.083 44.591-30.813l130.693-75.452c6.407-3.7 13.911-4.675 21.126-2.74 7.215 1.934 13.225 6.527 16.924 12.938 7.679 13.303 3.107 30.375-10.192 38.053zm-366.74-88.004h103.178a83.305 83.305 0 0 0-.231 5.873 8 8 0 0 0 8 8h149.412a8 8 0 0 0 8-8c0-1.977-.095-3.931-.231-5.873h106.384a8 8 0 0 0 8-8c0-29.956-18.329-55.707-44.358-66.64 9.076-7.84 14.837-19.419 14.837-32.325 0-23.556-19.165-42.721-42.722-42.721s-42.722 19.165-42.722 42.721c0 12.949 5.799 24.563 14.928 32.404-13.448 5.685-25.084 15.365-33.075 27.798a83.074 83.074 0 0 0-33.851-24.456c11.242-8.866 18.48-22.594 18.48-37.99 0-26.675-21.701-48.376-48.376-48.376s-48.376 21.701-48.376 48.376c0 15.396 7.238 29.125 18.48 37.99-12.396 4.824-23.349 12.547-32.021 22.344a72.778 72.778 0 0 0-31.643-25.734c9.098-7.841 14.873-19.433 14.873-32.356 0-23.556-19.165-42.721-42.723-42.721-23.557 0-42.721 19.165-42.721 42.721 0 12.906 5.761 24.485 14.836 32.325-26.029 10.933-44.358 36.684-44.358 66.64a8 8 0 0 0 8 8zM398.402 101.85c0-14.733 11.987-26.721 26.722-26.721s26.722 11.987 26.722 26.721-11.987 26.722-26.722 26.722-26.722-11.988-26.722-26.722zm26.722 42.721c28.296 0 51.779 21.008 55.676 48.243H380.257a82.077 82.077 0 0 0-6.098-15.682c9.202-19.613 29.237-32.561 50.965-32.561zM268.133 99.605c0-17.852 14.523-32.376 32.376-32.376s32.376 14.524 32.376 32.376c0 17.853-14.523 32.376-32.376 32.376s-32.376-14.523-32.376-32.376zm32.376 48.376c34.074 0 62.264 25.683 66.229 58.706H234.279c3.966-33.023 32.156-58.706 66.23-58.706zM179.1 75.129c14.735 0 26.723 11.987 26.723 26.721s-11.987 26.722-26.723 26.722c-14.733 0-26.721-11.987-26.721-26.722 0-14.734 11.987-26.721 26.721-26.721zm.001 69.442c20.616 0 39.587 11.444 49.417 29.479a82.207 82.207 0 0 0-7.757 18.764h-97.337c3.896-27.235 27.38-48.243 55.677-48.243z" fill="#ffffff" opacity="1" data-original="#000000"></path></g></svg>