<svg xmlns="http://www.w3.org/2000/svg" version="1.1" xmlns:xlink="http://www.w3.org/1999/xlink" width="512" height="512" x="0" y="0" viewBox="0 0 64 64" style="enable-background:new 0 0 512 512" xml:space="preserve" class=""><g><path d="M58.846 4.28C46.956 2.783 35.37 7.133 26.559 15.513c-12.64-1.733-20.494 8.337-21.644 16.561-.116.634.47 1.243 1.107 1.15l9.484-1.152c.673.673 1.513 1.51 2.562 2.554l-1.622 3.27a2.999 2.999 0 0 0 .568 3.454l5.635 5.635a2.998 2.998 0 0 0 3.454.567l3.265-1.619 2.903 2.904c.315.315.798.381 1.185.172 3.127-1.7 8.268-4.886 13.197-9.67.54 9.686-7.018 16.054-13.724 17.496l.442-3.625c.135-1.314-1.809-1.544-1.984-.242l-.61 5.01a.999.999 0 0 0 1.152 1.108c7.744-1.084 18.304-8.595 16.563-21.625 7.521-7.564 12.991-20.456 11.228-32.308a1 1 0 0 0-.874-.875zM25.214 45.76a.998.998 0 0 1-1.15-.188l-5.636-5.635a.999.999 0 0 1-.19-1.15l1.323-2.669c2.587 2.592 5.726 5.734 8.315 8.324l-2.662 1.319zm32.219-29.605c-3.048 16.982-17.506 26.936-24.28 30.737-3.3-3.299-11.496-11.513-16.045-16.046 1.472-2.665 3.912-6.273 6.032-8.786.83-1.01-.704-2.28-1.541-1.276-2.215 2.613-4.874 6.572-6.357 9.305l-8.08.982c.692-2.81 2.815-8.677 8.836-11.837 4.291-2.253 8.547-2.017 10.702-1.68.305.038.622-.031.858-.246C35.798 9.346 46.606 4.999 57.82 6.18a36.124 36.124 0 0 1-.387 9.975zM17.117 46.917c-6.904-6.149-13.02 5.988-13.115 12.02-.05.582.48 1.112 1.061 1.061 6.017-.094 18.125-6.185 12.054-13.081zm-1.885 6.777a17.068 17.068 0 0 1-5.231 3.2 17.107 17.107 0 0 1-3.888.993 17.06 17.06 0 0 1 4.202-9.131c3.566-4.17 9.132 1.312 4.917 4.938z" fill="#ffffff" opacity="1" data-original="#000000"></path><path d="M35.35 17.286c-5.052 4.952-1.392 13.79 5.681 13.718 7.08.06 10.724-8.74 5.683-13.718-3.133-3.133-8.232-3.133-11.364 0zm9.95 9.95c-5.814 5.471-14.006-2.725-8.536-8.536 5.849-5.447 13.982 2.688 8.536 8.536z" fill="#ffffff" opacity="1" data-original="#000000"></path></g></svg>